<?xml version="1.0" encoding="utf-8"?>
<!-- Generator: Adobe Illustrator 19.0.1, SVG Export Plug-In . SVG Version: 6.00 Build 0)  -->
<svg version="1.1" id="Слой_1" xmlns="http://www.w3.org/2000/svg" xmlns:xlink="http://www.w3.org/1999/xlink" x="0px" y="0px"
	 viewBox="0 0 192 192" style="enable-background:new 0 0 192 192;" xml:space="preserve">
<style type="text/css">
	.st0{display:none;}
	.st1{display:inline;fill:#D5527B;}
	.st2{display:inline;fill:none;}
	.st3{fill:#D5527B;}
	.st4{display:inline;}
</style>
<g class="st0">
	<path class="st1" d="M162.3,52.1l5.6-5.6c1.6,0.7,3.5,0.4,4.8-0.8l1-1c1.7-1.7,1.7-4.3,0-6l-7.2-7.2c-1.7-1.7-4.4-1.7-6,0l-1,1
		c-1.7,1.7-1.7,4.3,0,6l0.2,0.2l-5.2,5.2c-13.3-12.3-30.7-20.4-50-22.2v-5.2h0.8c3.9,0,7.1-3.2,7.1-7.1V7.1c0-3.9-3.2-7.1-7.1-7.1
		h-17c-3.9,0-7.1,3.2-7.1,7.1v2.4c0,3.9,3.2,7.1,7.1,7.1h0.8v5.2c-41.6,3.7-74.9,37.6-77.3,80.1c-2.6,46.9,33.4,87.1,80.3,89.7
		c1.6,0.1,3.2,0.1,4.8,0.1c45.1,0,82.5-35.3,84.9-80.5C183,88.9,175.5,68.1,162.3,52.1L162.3,52.1z M170.5,110.5
		c-2.2,40.5-36.8,71.9-77.8,69.6c-40.6-2.2-71.9-37.1-69.6-77.8c2.2-39.1,34.5-69.7,73.6-69.7c1.4,0,2.7,0,4.1,0.1
		C141.5,35,172.7,69.9,170.5,110.5L170.5,110.5z M162.4,105.7h-4.6c0-0.1,0-0.2,0-0.4c0-5.3-4.3-9.5-9.5-9.5h-37
		c-3.4-5.8-9.7-9.7-16.6-9.7c-0.1,0-0.2,0-0.3,0V37.6C131.9,37.6,162.4,68.1,162.4,105.7L162.4,105.7z M152.3,104.3
		c0,2.1-1.7,3.9-3.9,3.9h-40.7c-1.7,5.6-6.8,9.7-12.9,9.7c-7.5,0-13.5-6.1-13.5-13.5c0-7.5,6.1-13.5,13.5-13.5
		c6.1,0,11.3,4.1,13,9.7h40.7C150.6,100.4,152.3,102.2,152.3,104.3L152.3,104.3z M152.3,104.3"/>
	<rect x="11.6" class="st2" width="169.6" height="193"/>
</g>
<g>
	<path class="st3" d="M191.2,71.7l-32-52.6c-0.9-1.6-2.7-2.5-4.5-2.5H37.2c-1.8,0-3.5,1-4.5,2.5l-32,52.6c0,0,0,0.1-0.1,0.1
		c-0.2,0.4-0.4,0.8-0.5,1.2c0,0.1,0,0.1-0.1,0.2C0.1,73.6,0,74,0,74.4c0,0.1,0,0.1,0,0.2c0,0.1,0,0.2,0,0.3c0,0.4,0.1,0.8,0.3,1.2
		c0,0.1,0,0.1,0.1,0.2c0.2,0.4,0.4,0.8,0.7,1.2c0,0,0,0.1,0.1,0.1L91.9,190l0,0.1c0,0,0.1,0,0.1,0.1c0.2,0.3,0.5,0.5,0.8,0.8
		c0,0,0,0,0,0c0,0,0.1,0.1,0.1,0.1c0.4,0.3,0.9,0.6,1.4,0.7c0.4,0.1,0.8,0.2,1.2,0.2c0.1,0,0.3,0.1,0.4,0.1h0c0,0,0.1,0,0.1,0
		c0.5,0,0.9-0.1,1.4-0.2c0,0,0.1,0,0.2,0c0,0,0,0,0,0c0,0,0,0,0,0c0.1-0.1,0.2-0.1,0.4-0.2c0.1,0,0.3-0.1,0.4-0.2
		c0.2-0.1,0.3-0.2,0.5-0.3c0.1-0.1,0.2-0.1,0.3-0.2c0,0,0.1-0.1,0.1-0.1c0.2-0.2,0.4-0.4,0.6-0.6c0-0.1,0.1-0.1,0.1-0.1l0-0.1
		l90.7-112.3C192.2,76,192.4,73.6,191.2,71.7L191.2,71.7z M107.4,27l16.8,42.1H67.8L84.6,27H107.4z M40.2,27h33.1L56.5,69.2H14.6
		L40.2,27z M16.3,79.7h39.9l26.2,81.8L16.3,79.7z M96,169.5L67.2,79.7h57.5L96,169.5z M109.6,161.5l26.2-81.8h39.9L109.6,161.5z
		 M135.5,69.2l-16.9-42.1h33.1l25.6,42.1H135.5z M135.5,69.2"/>
</g>
<g class="st0">
	<path class="st4" d="M160,0.4H48.3c-6.4,0-11.6,5.2-11.6,11.6v25.9C15.5,43.9,0,63.5,0,86.6c0,23.1,15.5,42.6,36.7,48.7v44.6
		c0,6.4,5.2,11.6,11.6,11.6h91.2c1.1,0,2.1-0.4,2.9-1.2l27.9-27.9c0.8-0.8,1.2-1.8,1.2-2.9V11.9C171.6,5.6,166.4,0.4,160,0.4
		L160,0.4z M48.3,8.5H160c1.9,0,3.4,1.5,3.4,3.4v12.3H44.9V11.9C44.9,10.1,46.4,8.5,48.3,8.5L48.3,8.5z M8.2,86.6
		c0-23.4,19.1-42.5,42.5-42.5c23.4,0,42.5,19.1,42.5,42.5s-19.1,42.5-42.5,42.5C27.2,129.1,8.2,110,8.2,86.6L8.2,86.6z M44.9,179.9
		v-43c1.9,0.2,3.8,0.3,5.8,0.3c15.2,0,28.9-6.7,38.2-17.4h25c2.3,0,4.1-1.8,4.1-4.1c0-2.3-1.8-4.1-4.1-4.1H94.6
		c3.5-6.2,5.8-13.2,6.5-20.7h12.7c2.3,0,4.1-1.8,4.1-4.1c0-2.3-1.8-4.1-4.1-4.1h-12.7c-0.6-7.5-2.7-14.5-6.2-20.7h18.8
		c2.3,0,4.1-1.8,4.1-4.1c0-2.3-1.8-4.1-4.1-4.1H89.3c-9.3-11-23.2-18-38.7-18c-1.9,0-3.9,0.1-5.8,0.3v-3.8h118.5v123h-16.3
		c-6.4,0-11.6,5.2-11.6,11.6v16.3H48.3C46.4,183.3,44.9,181.8,44.9,179.9L44.9,179.9z M143.6,177.5V167c0-1.9,1.5-3.4,3.4-3.4h10.6
		L143.6,177.5z M143.6,177.5"/>
	<path class="st4" d="M129.9,62.1h13.6c2.3,0,4.1-1.8,4.1-4.1c0-2.3-1.8-4.1-4.1-4.1h-13.6c-2.3,0-4.1,1.8-4.1,4.1
		C125.8,60.3,127.6,62.1,129.9,62.1L129.9,62.1z M129.9,62.1"/>
	<path class="st4" d="M129.9,91h13.6c2.3,0,4.1-1.8,4.1-4.1c0-2.3-1.8-4.1-4.1-4.1h-13.6c-2.3,0-4.1,1.8-4.1,4.1
		C125.8,89.1,127.6,91,129.9,91L129.9,91z M129.9,91"/>
	<path class="st4" d="M129.9,119.8h13.6c2.3,0,4.1-1.8,4.1-4.1c0-2.3-1.8-4.1-4.1-4.1h-13.6c-2.3,0-4.1,1.8-4.1,4.1
		C125.8,118,127.6,119.8,129.9,119.8L129.9,119.8z M129.9,119.8"/>
	<path class="st4" d="M143.4,148.7c2.3,0,4.1-1.8,4.1-4.1c0-2.3-1.8-4.1-4.1-4.1h-38.2c-2.3,0-4.1,1.8-4.1,4.1
		c0,2.3,1.8,4.1,4.1,4.1H143.4z M143.4,148.7"/>
	<path class="st4" d="M82.3,66l-5-5c-1.3-1.3-3.1-2.1-5-2.1c-1.9,0-3.7,0.7-5,2.1L41.2,87.1L34,79.9c-1.3-1.3-3.1-2.1-5-2.1
		c-1.9,0-3.7,0.7-5,2.1l-5,5c-2.8,2.8-2.8,7.3,0,10l17.2,17.2c1.3,1.3,3.1,2.1,5,2.1c1.9,0,3.7-0.7,5-2.1L82.3,76
		C85.1,73.3,85.1,68.8,82.3,66L82.3,66z M41.2,105.6L25.5,89.9l3.5-3.5l9.4,9.4c1.6,1.6,4.2,1.6,5.8,0l28.3-28.3l3.5,3.5L41.2,105.6
		z M41.2,105.6"/>
</g>
</svg>
