<?xml version="1.0" encoding="utf-8"?>
<!-- Generator: Adobe Illustrator 19.0.1, SVG Export Plug-In . SVG Version: 6.00 Build 0)  -->
<svg version="1.1" id="Слой_1" xmlns="http://www.w3.org/2000/svg" xmlns:xlink="http://www.w3.org/1999/xlink" x="0px" y="0px"
	 viewBox="0 0 498.2 498.2" style="enable-background:new 0 0 498.2 498.2;" xml:space="preserve">
<style type="text/css">
	.st0{display:none;}
	.st1{display:inline;fill:#005DFF;}
	.st2{display:none;fill:#005DFF;}
	.st3{fill:#005DFF;}
</style>
<g class="st0">
	<path class="st1" d="M248.4,202.4c-25.8,0-46.7,20.9-46.7,46.7s20.9,46.7,46.7,46.7s46.7-20.9,46.7-46.7S274.2,202.4,248.4,202.4z
		 M248.4,280.2c-17.2,0-31.1-14-31.1-31.1s14-31.1,31.1-31.1s31.1,14,31.1,31.1S265.6,280.2,248.4,280.2z"/>
	<path class="st1" d="M248.4,171.3c-42.9,0-77.8,34.9-77.8,77.8s34.9,77.8,77.8,77.8c42.9,0,77.8-34.9,77.8-77.8
		S291.4,171.3,248.4,171.3z M248.4,311.4c-34.4,0-62.3-27.9-62.3-62.3s27.9-62.3,62.3-62.3s62.3,27.9,62.3,62.3
		S282.8,311.4,248.4,311.4z"/>
	<path class="st1" d="M249.1,0C111.5,0,0,111.5,0,249.1s111.5,249.1,249.1,249.1s249.1-111.5,249.1-249.1S386.7,0,249.1,0z
		 M248.4,342.5c-51.6,0-93.4-41.8-93.4-93.4s41.8-93.4,93.4-93.4c51.6,0,93.4,41.8,93.4,93.4S300,342.5,248.4,342.5z"/>
</g>
<path class="st2" d="M249.7,0.6C112.4,0.6,1.2,111.9,1.2,249.1c0,137.3,111.3,248.5,248.5,248.5s248.5-111.3,248.5-248.5
	C498.2,111.9,387,0.6,249.7,0.6z M200.3,296.8c1.6,1.6,1.6,4,0,5.6l-6.1,6.1c-1.6,1.6-4,1.6-5.6,0l-56.6-56.6c-1.6-1.6-1.6-4,0-5.6
	l56.6-56.6c1.6-1.6,4-1.6,5.6,0l6.1,6.1c1.6,1.6,1.6,4,0,5.6l-47.7,47.7L200.3,296.8z M272.1,172.9l-45.3,156.7
	c-0.6,2.1-2.8,3.3-4.7,2.7l-7.5-2.1c-2.1-0.6-3.3-2.8-2.7-4.9l45.3-156.7c0.6-2.1,2.8-3.3,4.7-2.7l7.5,2.1
	C271.5,168.7,272.7,170.8,272.1,172.9z M351.8,251.9l-56.6,56.6c-1.6,1.6-4,1.6-5.6,0l-6.1-6.1c-1.6-1.6-1.6-4,0-5.6l47.7-47.7
	l-47.7-47.7c-1.6-1.6-1.6-4,0-5.6l6.1-6.1c1.6-1.6,4-1.6,5.6,0l56.6,56.6C353.4,247.9,353.4,250.3,351.8,251.9z"/>
<g>
	<path class="st3" d="M237.3,264.8c-0.4-1.3-1.6-1.9-2.6-1.9s-2.2,0.6-2.6,1.9c-2.6,8.2-9,16.4-10.6,18.9c-1.5,2.4-2.4,5.4-2.4,8.4
		c0,8.6,6.9,15.6,15.6,15.6s15.6-6.9,15.6-15.6c0-3-1-6-2.4-8.4C246.3,281.2,239.8,273,237.3,264.8z"/>
	<path class="st3" d="M250.3,0C112.7,0,1.2,111.5,1.2,249.1s111.5,249.1,249.1,249.1s249.1-111.5,249.1-249.1S387.9,0,250.3,0z
		 M250.3,338.8c-34.4,0-62.3-27.9-62.3-62.3c0-12.3,3.8-23.7,9.9-33.5c6.2-9.7,32.2-42.7,42.1-75.5c1.6-5.2,6.4-7.8,10.3-7.8
		c3.9,0,8.9,2.6,10.3,7.8c9.9,32.8,35.9,65.8,42.1,75.5c6.2,9.7,9.9,21.2,9.9,33.5C312.6,310.9,284.7,338.8,250.3,338.8z"/>
</g>
</svg>
